<svg xmlns="http://www.w3.org/2000/svg" xmlns:xlink="http://www.w3.org/1999/xlink" viewBox="0,0,256,256" width="64px" height="64px"><defs><linearGradient x1="38" y1="4.583" x2="38" y2="58.763" gradientUnits="userSpaceOnUse" id="color-1"><stop offset="0" stop-color="#1a6dff"></stop><stop offset="1" stop-color="#c822ff"></stop></linearGradient><linearGradient x1="32.425" y1="4.583" x2="32.425" y2="58.763" gradientUnits="userSpaceOnUse" id="color-2"><stop offset="0" stop-color="#1a6dff"></stop><stop offset="1" stop-color="#c822ff"></stop></linearGradient><linearGradient x1="19.378" y1="26.035" x2="19.378" y2="51.961" gradientUnits="userSpaceOnUse" id="color-3"><stop offset="0" stop-color="#6dc7ff"></stop><stop offset="1" stop-color="#e6abff"></stop></linearGradient></defs><g transform="translate(-17.92,-17.92) scale(1.14,1.14)"><g fill-opacity="0" fill="#fafafa" fill-rule="nonzero" stroke="none" stroke-width="1" stroke-linecap="butt" stroke-linejoin="miter" stroke-miterlimit="10" stroke-dasharray="" stroke-dashoffset="0" font-family="none" font-weight="none" font-size="none" text-anchor="none" style="mix-blend-mode: normal"><path d="M15.7193,240.2807v-224.5614h224.5614v224.5614z" id="bgRectangle"></path></g><g fill="none" fill-rule="nonzero" stroke="none" stroke-width="1" stroke-linecap="butt" stroke-linejoin="none" stroke-miterlimit="10" stroke-dasharray="" stroke-dashoffset="0" font-family="none" font-weight="none" font-size="none" text-anchor="none" style="mix-blend-mode: normal"><path transform="scale(4,4)" d="M43.891,4c0.525,3.276 -0.919,6.493 -2.823,8.771c-1.984,2.382 -5.365,4.229 -8.673,4.229c-0.087,0 -0.173,-0.001 -0.259,-0.004c-0.621,-3.134 0.974,-6.373 2.897,-8.554c2.121,-2.394 5.754,-4.243 8.858,-4.442zM44.168,19.004c3.654,0 7.518,1.888 10.299,5.168c-3.825,1.868 -6.467,5.784 -6.467,10.328c0,5.074 3.29,9.372 7.85,10.898c-0.87,2.18 -1.997,4.355 -3.424,6.449c-2.287,3.345 -5.344,7.116 -9.332,7.149c-0.033,0.001 -0.067,0.001 -0.1,0.001c-3.473,0 -4.56,-1.974 -9.329,-1.997c-0.003,0 -0.007,0 -0.01,0c-0.054,0 -0.102,0.003 -0.155,0.003c-0.053,0 -0.101,-0.003 -0.155,-0.003c-0.003,0 -0.007,0 -0.01,0c-4.769,0.023 -5.855,1.997 -9.329,1.997c-0.033,0 -0.066,-0.001 -0.1,-0.001c-3.988,-0.032 -7.045,-3.804 -9.332,-7.149c-6.4,-9.392 -7.074,-20.396 -3.12,-26.252c2.796,-4.153 7.223,-6.591 11.378,-6.591c4.233,0 6.92,1.996 10.418,1.996c0.094,0 0.25,0 0.25,0c0,0 0.156,0 0.25,0c3.498,0 6.185,-1.996 10.418,-1.996z" id="strokeMainSVG" fill="#f3ff47" stroke="#f3ff47" stroke-linejoin="round"></path><g transform="scale(4,4)" stroke="none" stroke-linejoin="miter"><path d="M41.932,6.399c-0.325,2.351 -1.705,4.259 -2.401,5.092c-1.372,1.648 -3.435,2.871 -5.478,3.321c0.248,-1.897 1.343,-3.757 2.477,-5.043c1.323,-1.494 3.387,-2.75 5.402,-3.37M43.891,4c-3.104,0.199 -6.737,2.048 -8.858,4.442c-1.923,2.181 -3.518,5.42 -2.897,8.554c0.086,0.003 0.172,0.004 0.259,0.004c3.308,0 6.689,-1.847 8.673,-4.229c1.904,-2.278 3.348,-5.495 2.823,-8.771z" fill="url(#color-1)"></path><path d="M44.168,21.004c2.444,0 4.982,1.019 7.105,2.799c-3.305,2.523 -5.273,6.425 -5.273,10.697c0,5.074 2.827,9.639 7.216,11.943c-0.705,1.496 -1.523,2.929 -2.441,4.276c-1.99,2.91 -4.663,6.253 -7.702,6.278h-0.079c-1.234,0 -2.044,-0.312 -3.167,-0.744c-1.435,-0.552 -3.221,-1.239 -6.172,-1.254l-0.169,0.003l-0.161,-0.002c-2.932,0.014 -4.718,0.702 -6.152,1.254c-1.122,0.432 -1.933,0.744 -3.167,0.744h-0.084c-3.034,-0.025 -5.707,-3.368 -7.695,-6.276c-6.304,-9.252 -6.31,-19.274 -3.113,-24.009c2.335,-3.467 6.15,-5.708 9.72,-5.708c1.919,0 3.48,0.477 5.134,0.982c1.63,0.498 3.318,1.013 5.282,1.013h0.25h0.25c1.964,0 3.652,-0.515 5.284,-1.014c1.653,-0.505 3.215,-0.982 5.134,-0.982M44.168,19.004c-4.233,0 -6.92,1.996 -10.418,1.996c-0.094,0 -0.25,0 -0.25,0c0,0 -0.156,0 -0.25,0c-3.498,0 -6.185,-1.996 -10.418,-1.996c-4.155,0 -8.582,2.438 -11.378,6.591c-3.954,5.856 -3.28,16.86 3.12,26.252c2.287,3.345 5.344,7.117 9.332,7.149c0.034,0 0.067,0.001 0.1,0.001c3.474,0 4.56,-1.974 9.329,-1.997c0.003,0 0.007,0 0.01,0c0.054,0 0.102,0.003 0.155,0.003c0.053,0 0.101,-0.003 0.155,-0.003c0.003,0 0.007,0 0.01,0c4.769,0.023 5.856,1.997 9.329,1.997c0.033,0 0.067,0 0.1,-0.001c3.988,-0.033 7.045,-3.804 9.332,-7.149c1.427,-2.094 2.554,-4.269 3.424,-6.449c-4.56,-1.526 -7.85,-5.824 -7.85,-10.898c0,-4.544 2.642,-8.46 6.467,-10.328c-2.781,-3.28 -6.645,-5.168 -10.299,-5.168z" fill="url(#color-2)"></path><path d="M22.352,51.961c-0.88,-0.867 -1.829,-2.042 -2.82,-3.491c-2.88,-4.228 -4.532,-9.137 -4.532,-13.47c0,-3.518 1.65,-6.702 4.647,-8.965l1.205,1.596c-2.484,1.876 -3.852,4.493 -3.852,7.369c0,3.941 1.525,8.439 4.185,12.343c0.917,1.342 1.783,2.417 2.571,3.194z" fill="url(#color-3)"></path></g></g></g></svg>