<svg xmlns="http://www.w3.org/2000/svg" xmlns:xlink="http://www.w3.org/1999/xlink" viewBox="0,0,256,256" width="48px" height="48px"><g transform=""><g fill="#fdfdfd" fill-rule="nonzero" stroke="none" stroke-width="1" stroke-linecap="butt" stroke-linejoin="miter" stroke-miterlimit="10" stroke-dasharray="" stroke-dashoffset="0" font-family="none" font-weight="none" font-size="none" text-anchor="none" style="mix-blend-mode: normal"><path d="M0,256v-256h256v256z" id="bgRectangle"></path></g><g fill="#ffffff" fill-rule="nonzero" stroke="none" stroke-width="1" stroke-linecap="butt" stroke-linejoin="miter" stroke-miterlimit="10" stroke-dasharray="" stroke-dashoffset="0" font-family="none" font-weight="none" font-size="none" text-anchor="none" style="mix-blend-mode: normal"><path d="M76.3871,231.22581c-28.50502,0 -51.6129,-23.10788 -51.6129,-51.6129v-103.22581c0,-28.50502 23.10788,-51.6129 51.6129,-51.6129h103.22581c28.50502,0 51.6129,23.10788 51.6129,51.6129v103.22581c0,28.50502 -23.10788,51.6129 -51.6129,51.6129z" id="shape"></path></g><g fill="none" fill-rule="nonzero" stroke="none" stroke-width="1" stroke-linecap="butt" stroke-linejoin="none" stroke-miterlimit="10" stroke-dasharray="" stroke-dashoffset="0" font-family="none" font-weight="none" font-size="none" text-anchor="none" style="mix-blend-mode: normal"><path transform="translate(43.28534,-31.99816) scale(5.33333,5.33333)" d="M40.084,32.613c-0.00013,0.00028 -0.00026,0.00057 -0.00039,0.00085c0.00013,0.00005 0.00026,0.0001 0.00039,0.00015c-0.848,1.835 -1.254,2.655 -2.342,4.274c-1.521,2.263 -3.67,5.088 -6.326,5.109c-2.362,0.018 -2.971,-1.506 -6.176,-1.482c-3.204,0.015 -3.872,1.509 -6.237,1.484c-2.654,-0.022 -4.689,-2.568 -6.21,-4.826c-0.39902,-0.59373 -0.76421,-1.19699 -1.09631,-1.80603c-3.21958,-5.89498 -3.36444,-12.33295 -0.97969,-15.91597c1.861,-2.803 4.807,-4.449 7.572,-4.449c2.817,0 4.588,1.514 6.916,1.514c2.262,0 3.638,-1.517 6.896,-1.517c2.464,0 5.07,1.313 6.931,3.575c-1.05527,0.56523 -1.89798,1.28777 -2.53811,2.10797c0.08064,-0.08542 0.16135,-0.1724 0.24211,-0.26097c-2.72856,3.17367 -2.24315,7.9962 0.84997,10.7135c0.70182,0.61559 1.53693,1.12298 2.49803,1.4785zM24.092,14.997c-0.414,-2.17 0.649,-4.412 1.931,-5.922c1.414,-1.657 3.836,-2.937 5.905,-3.075c0.35,2.268 -0.613,4.495 -1.882,6.072c-1.357,1.692 -3.695,2.994 -5.954,2.925z" id="strokeMainSVG" fill="#88f84e" stroke="#88f84e" stroke-linejoin="round"></path><g transform="translate(43.28534,-31.99816) scale(5.33333,5.33333)" stroke="none" stroke-linejoin="miter"><path d="M40.084,32.613c-0.848,1.835 -1.254,2.655 -2.342,4.274c-1.521,2.264 -3.67,5.089 -6.326,5.109c-2.361,0.018 -2.971,-1.507 -6.176,-1.482c-3.204,0.016 -3.872,1.51 -6.237,1.484c-2.654,-0.022 -4.688,-2.568 -6.21,-4.826c-4.259,-6.34 -4.707,-13.768 -2.076,-17.721c1.861,-2.803 4.807,-4.449 7.572,-4.449c2.817,0 4.588,1.514 6.916,1.514c2.262,0 3.638,-1.517 6.896,-1.517c2.464,0 5.07,1.313 6.931,3.575c-6.09,3.262 -5.101,11.763 1.052,14.039z" fill="#f60303"></path><path d="M30.046,12.072c1.269,-1.577 2.232,-3.804 1.882,-6.072c-2.069,0.138 -4.491,1.418 -5.905,3.075c-1.282,1.51 -2.345,3.752 -1.931,5.922c2.259,0.069 4.597,-1.233 5.954,-2.925z" fill="#f60303"></path><path d="M36.736,20.421c-8.736,9.58 -16.736,0.58 -27.508,7.421c0.375,3.027 1.53,6.303 3.565,9.331c1.521,2.258 3.556,4.804 6.21,4.826c2.365,0.025 3.033,-1.469 6.237,-1.484c3.205,-0.024 3.814,1.5 6.176,1.482c2.656,-0.021 4.805,-2.846 6.326,-5.109c1.088,-1.619 1.494,-2.439 2.342,-4.274c-5.206,-1.926 -6.695,-8.3 -3.348,-12.193z" fill="#fffa40"></path></g></g></g></svg>